<?xml version="1.0" standalone="no"?><!DOCTYPE svg PUBLIC "-//W3C//DTD SVG 1.1//EN" "http://www.w3.org/Graphics/SVG/1.1/DTD/svg11.dtd"><svg class="icon" width="32px" height="32.00px" viewBox="0 0 1024 1024" version="1.1" xmlns="http://www.w3.org/2000/svg"><path fill="#d4237a" d="M433.65 893.734H241.807c-48.61 0-88.157-39.547-88.157-88.157V229.892c0-48.61 39.547-88.157 88.157-88.157h480.685c48.61 0 88.157 39.547 88.157 88.157v227.843c0 13.255-10.745 24-24 24s-24-10.745-24-24V229.892c0-22.143-18.015-40.157-40.157-40.157H241.807c-22.143 0-40.157 18.015-40.157 40.157v575.685c0 22.143 18.015 40.157 40.157 40.157H433.65c13.255 0 24 10.745 24 24s-10.745 24-24 24zM495.342 673.083h-48V403.899l-70.721 65.281-32.558-35.27 151.279-139.642zM495.342 673.083h-48v-24.984c0-51.884 18.688-100.756 52.62-137.616 34.44-37.411 80.388-58.014 129.38-58.014v48c-73.888 0-134 66.227-134 147.63v24.984zM710.548 896.612l-13.106-9.722c-1.191-0.884-29.501-21.98-58.143-51.739-40.839-42.433-61.546-80.783-61.546-113.985 0-77.894 59.571-141.265 132.795-141.265s132.795 63.373 132.795 141.269c0 33.201-20.707 71.55-61.547 113.982-28.641 29.758-56.95 50.854-58.142 51.738l-13.106 9.722z m0-272.711c-48.962 0-88.795 43.633-88.795 97.265 0 38.568 56.432 93.238 88.795 120.031 32.357-26.787 88.795-81.459 88.795-120.027 0-53.634-39.833-97.269-88.795-97.269zM710.548 714.083m-35 0a35 35 0 1 0 70 0 35 35 0 1 0-70 0Z" /></svg>