<?xml version="1.0" standalone="no"?><!DOCTYPE svg PUBLIC "-//W3C//DTD SVG 1.1//EN" "http://www.w3.org/Graphics/SVG/1.1/DTD/svg11.dtd"><svg class="icon" width="32px" height="32.00px" viewBox="0 0 1024 1024" version="1.1" xmlns="http://www.w3.org/2000/svg"><path fill="#d4237a" d="M847.07 795.895V510.951c0-23.796-13.828-45.564-35.229-55.456L613.01 363.59v-95.484c0-48.523-39.477-88-88-88H264.93c-48.523 0-88 39.477-88 88v527.789h-62.712v48H909.782v-48H847.07z m-622.14 0v-527.79c0-22.056 17.944-40 40-40h260.08c22.056 0 40 17.944 40 40v527.789H224.93z m388.08 0V416.469l178.692 82.597c4.477 2.069 7.368 6.734 7.368 11.886v284.943H613.01zM280.779 322.432H509.16v48H280.779zM280.779 458.223H434.99v48H280.779zM486.526 574.339h-42.917c-2.476 0-4.79 1.171-6.202 3.147l-61.614 85.169-22.285-31.033c-1.408-1.968-3.724-3.142-6.197-3.142H304.49a7.603 7.603 0 0 0-6.783 4.155 7.627 7.627 0 0 0 0.581 7.956l71.496 98.886c1.455 2.001 3.698 3.148 6.154 3.148s4.7-1.15 6.153-3.147L492.727 586.45a7.622 7.622 0 0 0 0.581-7.957 7.603 7.603 0 0 0-6.782-4.154z" /></svg>