<?xml version="1.0" standalone="no"?><!DOCTYPE svg PUBLIC "-//W3C//DTD SVG 1.1//EN" "http://www.w3.org/Graphics/SVG/1.1/DTD/svg11.dtd"><svg class="icon" width="32px" height="32.00px" viewBox="0 0 1024 1024" version="1.1" xmlns="http://www.w3.org/2000/svg"><path fill="#d4237a" d="M310.421 709.599v74.28H204.407c-29.11 0-52.793-25.408-52.793-56.64v-254.95l24.221-36.159v2.55H817.78v-1.385l31.656 47.259 39.879-26.713-91.305-136.306 74.95-0.044-0.023-40-101.71 0.059-37.919-56.608c-18.621-27.798-49.061-44.393-81.427-44.393h-310.93c-32.367 0-62.807 16.596-81.427 44.393l-38.084 56.855-89.569 0.053 0.023 40 62.741-0.037-90.514 135.127h-0.508v0.759l-0.095 0.142 0.095 0.064V727.24c0 57.698 45.216 104.64 100.793 104.64H358.42V709.6c0-8.999 6.458-16.32 14.397-16.32h170.385v-48H372.818c-34.406-0.002-62.397 28.852-62.397 64.319z m-11.017-457.943c9.692-14.469 25.224-23.107 41.547-23.107h310.93c16.323 0 31.855 8.638 41.548 23.106l93.125 139.024H206.279l93.125-139.023zM261.498 514.322h156.716v48H261.498zM761.942 520.251c-88.556 0-160.601 72.045-160.601 160.601 0 88.555 72.045 160.6 160.601 160.6 88.555 0 160.6-72.045 160.6-160.6 0-88.556-72.045-160.601-160.6-160.601z m0 277.2c-64.294 0-116.601-52.307-116.601-116.6 0-64.294 52.307-116.601 116.601-116.601 64.293 0 116.6 52.307 116.6 116.601s-52.307 116.6-116.6 116.6zM834.379 630.118h-31.644c-1.857 0-3.572 0.857-4.643 2.357l-45.359 62.717-16.358-22.787c-1.071-1.5-2.786-2.357-4.643-2.357H700.16c-4.643 0-7.357 5.286-4.643 9.072l52.716 72.931a5.682 5.682 0 0 0 9.215 0l81.575-112.862c2.714-3.785-0.001-9.071-4.644-9.071z" /></svg>