<?xml version="1.0" standalone="no"?><!DOCTYPE svg PUBLIC "-//W3C//DTD SVG 1.1//EN" "http://www.w3.org/Graphics/SVG/1.1/DTD/svg11.dtd"><svg class="icon" width="32px" height="32.00px" viewBox="0 0 1024 1024" version="1.1" xmlns="http://www.w3.org/2000/svg"><path fill="#d4237a" d="M511.998 910.186c-9.095 0-17.94-2.958-24.904-8.329l-0.095-0.074L206.426 683.15c-11.357-9.053-19.289-25.434-19.289-39.834V250.952c0-17.575 12.032-34.39 28.609-39.984l276.311-94.164c7.238-2.471 14.885-2.991 20.023-2.991s12.786 0.52 20.037 2.996l276.543 94.243c16.627 5.811 28.438 22.637 28.2 40.1v392.164c0 14.565-8.001 31-19.456 39.966l-280.34 218.449c-6.919 5.454-15.815 8.455-25.066 8.455zM236.635 645.84l275.363 214.571 275.449-214.638c0.529-0.676 1.214-2.084 1.412-2.907V255.015l-272.24-92.776c-0.331-0.097-2.009-0.425-4.54-0.425s-4.208 0.328-4.596 0.443l-272.347 92.814v387.751c0.217 0.864 0.944 2.328 1.499 3.018z m0.116 0.136z m-1.655-3.341z m-3.858-386.236l-0.078 0.026 0.078-0.026zM546.595 341.732c-66.179 0.076-119.809 53.706-119.885 119.885 0 23.695 6.853 46.494 19.872 66.09l-1.309 1.309-15.085-15.085a13.191 13.191 0 0 0-9.333-3.857h-0.034c-3.582 0-6.888 1.343-9.368 3.788l-14.361 14.361c-5.038 5.229-5.038 13.506 0 18.735l15.153 15.085-1.55 1.584-15.188-15.188c-5.229-4.985-13.456-4.97-18.666 0.034l-14.396 14.361c-5.043 5.219-5.027 13.5 0.034 18.701l15.153 15.119-16.256 16.256a13.084 13.084 0 0 0-3.857 9.333c0 3.547 1.378 6.853 3.857 9.333l15.257 15.257c5.185 5.093 13.5 5.078 18.666-0.034l85.169-85.204c55.369 36.443 129.799 21.101 166.242-34.269a120.028 120.028 0 0 0 19.767-65.779c-0.093-66.159-53.722-119.758-119.882-119.815z m0 191.726a71.29 71.29 0 0 1-50.799-21.043 71.292 71.292 0 0 1-21.043-50.799c0-19.217 7.473-37.264 21.043-50.799 13.535-13.569 31.547-21.008 50.764-21.008 19.217 0 37.264 7.473 50.799 21.043 13.569 13.535 21.008 31.547 21.008 50.764 0 19.217-7.473 37.264-21.008 50.799a71.116 71.116 0 0 1-50.764 21.043z" /></svg>